<?xml version="1.0" encoding="UTF-8" standalone="no"?>
<!-- Created with Inkscape (http://www.inkscape.org/) -->

<svg
   version="1.1"
   id="svg2"
   width="1047.3213"
   height="342.80399"
   viewBox="0 0 1047.3213 342.80399"
   sodipodi:docname="automaton 169 edge cuts.pdf"
   inkscape:version="1.2.1 (9c6d41e410, 2022-07-14)"
   xmlns:inkscape="http://www.inkscape.org/namespaces/inkscape"
   xmlns:sodipodi="http://sodipodi.sourceforge.net/DTD/sodipodi-0.dtd"
   xmlns="http://www.w3.org/2000/svg"
   xmlns:svg="http://www.w3.org/2000/svg">
  <defs
     id="defs6">
    <clipPath
       clipPathUnits="userSpaceOnUse"
       id="clipPath18">
      <path
         d="M 0,257.103 H 785.491 V 0 H 0 Z"
         id="path16" />
    </clipPath>
  </defs>
  <sodipodi:namedview
     id="namedview4"
     pagecolor="#ffffff"
     bordercolor="#000000"
     borderopacity="0.25"
     inkscape:showpageshadow="2"
     inkscape:pageopacity="0.0"
     inkscape:pagecheckerboard="0"
     inkscape:deskcolor="#d1d1d1"
     showgrid="false"
     inkscape:zoom="1.2469908"
     inkscape:cx="504.81527"
     inkscape:cy="171.61313"
     inkscape:window-width="2560"
     inkscape:window-height="1377"
     inkscape:window-x="2552"
     inkscape:window-y="-8"
     inkscape:window-maximized="1"
     inkscape:current-layer="g10">
    <inkscape:page
       x="0"
       y="0"
       id="page8"
       width="1047.3213"
       height="342.80399" />
  </sodipodi:namedview>
  <g
     id="g10"
     inkscape:groupmode="layer"
     inkscape:label="Page 1"
     transform="matrix(1.3333333,0,0,-1.3333333,0,342.804)">
    <g
       id="g12">
      <g
         id="g14"
         clip-path="url(#clipPath18)">
        <g
           id="g20"
           transform="translate(301.0088,10.7559)">
          <path
             d="m 0,0 -36.757,13.379 13.379,36.763 36.757,-13.379 z m -50.77,17.281 -38.522,6.793 6.793,38.525 38.522,-6.793 z m -53,8.203 h -39.117 v 39.117 h 39.117 z m -72.464,111.981 38.968,3.41 3.411,-38.969 -38.968,-3.41 z m -4.199,48.008 38.968,3.406 3.41,-38.969 -38.968,-3.406 z m -3.692,42.205 v 0 l -0.508,5.798 38.969,3.411 3.41,-38.969 -38.968,-3.41 z m -38.347,-148.608 -6.793,38.525 38.523,6.792 6.793,-38.524 z m -44.851,-34.172 -10.125,37.786 37.784,10.125 10.125,-37.786 z m -16.18,60.379 v -0.002 l -6.419,23.955 6.419,1.721 v -0.001 l 31.366,8.405 10.125,-37.785 -37.784,-10.125 z m 76.026,114.254 6.79,-38.523 -38.523,-6.793 -6.793,38.523 z m 15.16,-85.98 -38.522,-6.793 -6.793,38.523 38.522,6.793 z M -81.09,96.349 h -39.121 v 39.121 h 39.121 z m -39.12,87.307 h 39.121 v -39.117 h -39.121 z m -0.001,48.188 h 39.121 v -39.118 h -39.12 v 34.952 h -0.001 z m 51.024,-111.398 v 39.116 h 39.121 v -39.116 -0.001 h -39.121 z m 0,48.187 v 39.117 0.001 h 39.121 v -0.001 -39.117 0 H -69.187 Z M 32.165,73.686 20.801,42.469 c 0,0 -0.722,-1.989 -2.781,-1.24 l -44.103,16.054 -11.329,3.11 -33.472,5.904 v 2.842 42.007 h 47.529 v 4.056 0 1.111 3.903 h -0.002 l -0.041,92.775 h -47.486 v 14.687 h -0.001 v 8.498 c 0,4.174 -4.309,4.174 -4.309,4.174 h -1.967 -54.678 c -3.884,0 -4.148,3.014 -4.148,3.014 l -0.034,0.39 c -0.218,2.492 -4.363,2.129 -4.363,2.129 l -50.916,-4.451 c -4.241,-0.371 -3.88,-4.501 -3.88,-4.501 l 0.219,-2.5 c 0.346,-3.949 -3.411,-4.614 -3.411,-4.614 l -12.08,-2.139 h -70.924 c 0,0 -2.127,0 -2.127,-2.128 v -85.796 l -14.477,-3.879 c -3.999,-1.071 -2.887,-5.224 -2.887,-5.224 l 13.415,-50.059 3.949,-14.738 V 13.41 c 0,0 0,-2.125 2.127,-2.125 H -65.997 L -46.332,7.818 2.609,-9.998 c 4.072,-1.482 5.51,2.469 5.51,2.469 l 6.847,18.814 h 17.095 c 0,0 2.127,0 2.127,2.125 v 49.161 10.837 c 0,5.84 -2.023,0.278 -2.023,0.278 z"
             style="fill:none;stroke:#b4dbd2;stroke-width:0.425;stroke-linecap:round;stroke-linejoin:round;stroke-miterlimit:4;stroke-dasharray:none;stroke-opacity:1"
             id="path22" />
        </g>
        <g
           id="g24"
           transform="translate(670.5454,238.4336)">
          <path
             d="m 0,0 h -102.945 v 8.498 c 0,4.174 -4.31,4.174 -4.31,4.174 h -56.644 c -3.885,0 -4.149,3.014 -4.149,3.014 l -0.034,0.39 c -0.218,2.492 -4.362,2.13 -4.362,2.13 l -50.916,-4.452 c -4.242,-0.371 -3.88,-4.501 -3.88,-4.501 l 0.219,-2.5 c 0.345,-3.948 -3.411,-4.614 -3.411,-4.614 L -242.512,0 h -70.925 c 0,0 -2.127,0 -2.127,-2.127 v -85.796 l -14.477,-3.88 c -3.999,-1.071 -2.886,-5.223 -2.886,-5.223 l 13.414,-50.06 3.949,-14.735 v -52.447 c 0,0 0,-2.125 2.127,-2.125 h 215.379 l 19.665,-3.466 48.942,-17.817 c 4.071,-1.482 5.51,2.469 5.51,2.469 l 6.846,18.814 H 0 c 0,0 2.127,0 2.127,2.125 V -2.127 c 0,0 0,2.127 -2.127,2.127 z"
             style="fill:none;stroke:#b4dbd2;stroke-width:0.425;stroke-linecap:round;stroke-linejoin:round;stroke-miterlimit:4;stroke-dasharray:none;stroke-opacity:1"
             id="path26" />
        </g>
        <g
           id="g28"
           transform="translate(691.7896,84.2305)">
          <path
             d="m 0,0 c 0,-3.211 -2.602,-5.812 -5.812,-5.812 -3.211,0 -5.813,2.601 -5.813,5.812 0,3.207 2.602,5.81 5.813,5.81 C -2.602,5.81 0,3.207 0,0"
             style="fill:#000000;fill-opacity:1;fill-rule:nonzero;stroke:none"
             id="path30" />
        </g>
        <g
           id="g32"
           transform="translate(783.9497,56.8721)">
          <path
             d="m 0,0 c 0,-3.211 -2.602,-5.813 -5.812,-5.813 -3.211,0 -5.813,2.602 -5.813,5.813 0,3.207 2.602,5.808 5.813,5.808 C -2.602,5.808 0,3.207 0,0"
             style="fill:#000000;fill-opacity:1;fill-rule:nonzero;stroke:none"
             id="path34" />
        </g>
        <g
           id="g36"
           transform="translate(691.7896,231.1099)">
          <path
             d="m 0,0 c 0,-3.211 -2.602,-5.813 -5.812,-5.813 -3.211,0 -5.813,2.602 -5.813,5.813 0,3.211 2.602,5.812 5.813,5.812 C -2.602,5.812 0,3.211 0,0"
             style="fill:#000000;fill-opacity:1;fill-rule:nonzero;stroke:none"
             id="path38" />
        </g>
        <g
           id="g40"
           transform="translate(676.4243,236.1572)">
          <path
             d="m 0,0 v -10.363 c 0.003,-2.109 2.126,-2.109 2.126,-2.109 h 48.853 l 0.043,-97.79 H 2.126 c -2.105,0 -2.105,-2.157 -2.105,-2.157 0,0 -0.01,-42.52 -0.01,-44.326 0,-1.806 1.875,-2.137 1.875,-2.137 l 35.08,-6.187 11.328,-3.11 44.104,-16.054 c 2.058,-0.749 2.782,1.24 2.782,1.24 l 13.386,36.779 V 0 c 0,2.127 -2.126,2.127 -2.126,2.127 H 2.126 C 0,2.127 0,0 0,0 Z"
             style="fill:none;stroke:#b4dbd2;stroke-width:0.425;stroke-linecap:round;stroke-linejoin:round;stroke-miterlimit:4;stroke-dasharray:none;stroke-opacity:1"
             id="path42" />
        </g>
      </g>
    </g>
  </g>
</svg>
