%TF.GenerationSoftware,KiCad,Pcbnew,(6.0.8)*%
%TF.CreationDate,2023-01-01T21:59:49+01:00*%
%TF.ProjectId,rule169,72756c65-3136-4392-9e6b-696361645f70,v1.0.0*%
%TF.SameCoordinates,Original*%
%TF.FileFunction,Paste,Top*%
%TF.FilePolarity,Positive*%
%FSLAX46Y46*%
G04 Gerber Fmt 4.6, Leading zero omitted, Abs format (unit mm)*
G04 Created by KiCad (PCBNEW (6.0.8)) date 2023-01-01 21:59:49*
%MOMM*%
%LPD*%
G01*
G04 APERTURE LIST*
G04 Aperture macros list*
%AMHorizOval*
0 Thick line with rounded ends*
0 $1 width*
0 $2 $3 position (X,Y) of the first rounded end (center of the circle)*
0 $4 $5 position (X,Y) of the second rounded end (center of the circle)*
0 Add line between two ends*
20,1,$1,$2,$3,$4,$5,0*
0 Add two circle primitives to create the rounded ends*
1,1,$1,$2,$3*
1,1,$1,$4,$5*%
%AMRotRect*
0 Rectangle, with rotation*
0 The origin of the aperture is its center*
0 $1 length*
0 $2 width*
0 $3 Rotation angle, in degrees counterclockwise*
0 Add horizontal line*
21,1,$1,$2,0,0,$3*%
G04 Aperture macros list end*
%ADD10HorizOval,1.905000X-0.125071X-0.022053X0.125071X0.022053X0*%
%ADD11RotRect,1.905000X2.159000X100.000000*%
%ADD12RotRect,2.600000X2.600000X5.000000*%
%ADD13R,2.600000X2.600000*%
%ADD14RotRect,2.600000X2.600000X15.000000*%
%ADD15R,0.700000X1.000000*%
%ADD16R,1.000000X2.800000*%
%ADD17RotRect,2.600000X2.600000X10.000000*%
%ADD18RotRect,2.600000X2.600000X340.000000*%
%ADD19RotRect,2.600000X2.600000X350.000000*%
G04 APERTURE END LIST*
D10*
%TO.C,L1*%
X149984042Y-33150014D03*
D11*
X150422330Y-35635669D03*
%TD*%
D12*
%TO.C,S11*%
X190203523Y-58758458D03*
X178889217Y-61956736D03*
%TD*%
D13*
%TO.C,S13*%
X227923729Y-51853880D03*
X216373729Y-54053880D03*
%TD*%
%TO.C,S4*%
X227923731Y-34853873D03*
X216373731Y-37053873D03*
%TD*%
%TO.C,S12*%
X209923730Y-60353877D03*
X198373730Y-62553877D03*
%TD*%
%TO.C,S3*%
X209923726Y-26353870D03*
X198373726Y-28553870D03*
%TD*%
D12*
%TO.C,S2*%
X187240231Y-24887837D03*
X175925925Y-28086115D03*
%TD*%
D13*
%TO.C,S8*%
X209923724Y-43353883D03*
X198373724Y-45553883D03*
%TD*%
D14*
%TO.C,S5*%
X149951808Y-59888404D03*
X139364766Y-65002801D03*
%TD*%
D15*
%TO.C,PSW1*%
X231064000Y-30414566D03*
X228064000Y-30414566D03*
X226564000Y-30414566D03*
D16*
X224714000Y-28514566D03*
X232664000Y-28514566D03*
%TD*%
D17*
%TO.C,S6*%
X168509178Y-48054956D03*
X157516674Y-52227170D03*
%TD*%
D14*
%TO.C,S9*%
X154351731Y-76309149D03*
X143764689Y-81423546D03*
%TD*%
D17*
%TO.C,S1*%
X165557164Y-31313222D03*
X154564660Y-35485436D03*
%TD*%
D12*
%TO.C,S7*%
X188721867Y-41823149D03*
X177407561Y-45021427D03*
%TD*%
D17*
%TO.C,S10*%
X171461190Y-64878479D03*
X160468686Y-69050693D03*
%TD*%
D18*
%TO.C,S14*%
X243144820Y-93878443D03*
X231538926Y-91995434D03*
%TD*%
D19*
%TO.C,S15*%
X222907169Y-87812972D03*
X211150614Y-87973912D03*
%TD*%
D10*
%TO.C,L2*%
X150952999Y-38645246D03*
D11*
X151391287Y-41130901D03*
%TD*%
D10*
%TO.C,L3*%
X151921957Y-44140474D03*
D11*
X152360245Y-46626129D03*
%TD*%
D13*
%TO.C,S16*%
X201923728Y-85353877D03*
X190373728Y-87553877D03*
%TD*%
M02*
