%TF.GenerationSoftware,KiCad,Pcbnew,(6.0.8)*%
%TF.CreationDate,2023-01-01T22:00:03+01:00*%
%TF.ProjectId,rule169,72756c65-3136-4392-9e6b-696361645f70,v1.0.0*%
%TF.SameCoordinates,Original*%
%TF.FileFunction,Soldermask,Top*%
%TF.FilePolarity,Negative*%
%FSLAX46Y46*%
G04 Gerber Fmt 4.6, Leading zero omitted, Abs format (unit mm)*
G04 Created by KiCad (PCBNEW (6.0.8)) date 2023-01-01 22:00:03*
%MOMM*%
%LPD*%
G01*
G04 APERTURE LIST*
G04 Aperture macros list*
%AMRoundRect*
0 Rectangle with rounded corners*
0 $1 Rounding radius*
0 $2 $3 $4 $5 $6 $7 $8 $9 X,Y pos of 4 corners*
0 Add a 4 corners polygon primitive as box body*
4,1,4,$2,$3,$4,$5,$6,$7,$8,$9,$2,$3,0*
0 Add four circle primitives for the rounded corners*
1,1,$1+$1,$2,$3*
1,1,$1+$1,$4,$5*
1,1,$1+$1,$6,$7*
1,1,$1+$1,$8,$9*
0 Add four rect primitives between the rounded corners*
20,1,$1+$1,$2,$3,$4,$5,0*
20,1,$1+$1,$4,$5,$6,$7,0*
20,1,$1+$1,$6,$7,$8,$9,0*
20,1,$1+$1,$8,$9,$2,$3,0*%
%AMHorizOval*
0 Thick line with rounded ends*
0 $1 width*
0 $2 $3 position (X,Y) of the first rounded end (center of the circle)*
0 $4 $5 position (X,Y) of the second rounded end (center of the circle)*
0 Add line between two ends*
20,1,$1,$2,$3,$4,$5,0*
0 Add two circle primitives to create the rounded ends*
1,1,$1,$2,$3*
1,1,$1,$4,$5*%
%AMFreePoly0*
4,1,14,0.635355,0.435355,0.650000,0.400000,0.650000,0.200000,0.635355,0.164645,0.035355,-0.435355,0.000000,-0.450000,-0.035355,-0.435355,-0.635355,0.164645,-0.650000,0.200000,-0.650000,0.400000,-0.635355,0.435355,-0.600000,0.450000,0.600000,0.450000,0.635355,0.435355,0.635355,0.435355,$1*%
%AMFreePoly1*
4,1,16,0.635355,1.035355,0.650000,1.000000,0.650000,-0.250000,0.635355,-0.285355,0.600000,-0.300000,-0.600000,-0.300000,-0.635355,-0.285355,-0.650000,-0.250000,-0.650000,1.000000,-0.635355,1.035355,-0.600000,1.050000,-0.564645,1.035355,0.000000,0.470710,0.564645,1.035355,0.600000,1.050000,0.635355,1.035355,0.635355,1.035355,$1*%
G04 Aperture macros list end*
%ADD10C,0.000000*%
%ADD11C,0.250000*%
%ADD12C,0.100000*%
%ADD13HorizOval,2.005000X-0.125071X-0.022053X0.125071X0.022053X0*%
%ADD14RoundRect,0.050000X1.228500X-0.750576X0.897700X1.125483X-1.228500X0.750576X-0.897700X-1.125483X0*%
%ADD15C,3.100000*%
%ADD16C,3.529000*%
%ADD17C,1.801800*%
%ADD18C,2.132000*%
%ADD19RoundRect,0.050000X-1.181751X-1.408356X1.408356X-1.181751X1.181751X1.408356X-1.408356X1.181751X0*%
%ADD20RoundRect,0.050000X-0.750000X0.900000X-0.750000X-0.900000X0.750000X-0.900000X0.750000X0.900000X0*%
%ADD21C,0.600000*%
%ADD22RoundRect,0.050000X-1.300000X-1.300000X1.300000X-1.300000X1.300000X1.300000X-1.300000X1.300000X0*%
%ADD23C,4.200000*%
%ADD24C,2.700000*%
%ADD25RoundRect,0.050000X-0.919239X-1.592168X1.592168X-0.919239X0.919239X1.592168X-1.592168X0.919239X0*%
%ADD26C,1.000000*%
%ADD27RoundRect,0.050000X-0.350000X-0.500000X0.350000X-0.500000X0.350000X0.500000X-0.350000X0.500000X0*%
%ADD28RoundRect,0.050000X-0.500000X1.400000X-0.500000X-1.400000X0.500000X-1.400000X0.500000X1.400000X0*%
%ADD29C,4.100000*%
%ADD30RoundRect,0.050000X-1.054507X-1.505993X1.505993X-1.054507X1.054507X1.505993X-1.505993X1.054507X0*%
%ADD31C,1.700000*%
%ADD32FreePoly0,270.000000*%
%ADD33FreePoly0,90.000000*%
%ADD34RoundRect,0.050000X-0.800000X0.800000X-0.800000X-0.800000X0.800000X-0.800000X0.800000X0.800000X0*%
%ADD35FreePoly1,270.000000*%
%ADD36FreePoly1,90.000000*%
%ADD37RoundRect,0.450000X-0.400000X-0.400000X0.400000X-0.400000X0.400000X0.400000X-0.400000X0.400000X0*%
%ADD38O,1.850000X1.300000*%
%ADD39C,2.100000*%
%ADD40RoundRect,0.050000X-1.666227X-0.776974X0.776974X-1.666227X1.666227X0.776974X-0.776974X1.666227X0*%
%ADD41RoundRect,0.050000X-1.505993X-1.054507X1.054507X-1.505993X1.505993X1.054507X-1.054507X1.505993X0*%
%ADD42RoundRect,0.300000X-0.625000X0.375000X-0.625000X-0.375000X0.625000X-0.375000X0.625000X0.375000X0*%
G04 APERTURE END LIST*
D10*
G36*
X180883473Y-90410205D02*
G01*
X177923317Y-90410205D01*
X177923318Y-89280254D01*
X180883473Y-89280254D01*
X180883473Y-90410205D01*
G37*
G36*
X286767152Y-48567503D02*
G01*
X283806642Y-48567503D01*
X283806642Y-47437558D01*
X286767151Y-47437558D01*
X286767152Y-48567503D01*
G37*
G36*
X292777040Y-45954125D02*
G01*
X283806642Y-45954125D01*
X283806641Y-44824175D01*
X292777039Y-44824175D01*
X292777040Y-45954125D01*
G37*
G36*
X174873556Y-90410205D02*
G01*
X171913392Y-90410205D01*
X171913392Y-89280254D01*
X174873551Y-89280254D01*
X174873556Y-90410205D01*
G37*
G36*
X180883473Y-87796825D02*
G01*
X171913044Y-87796824D01*
X171913044Y-86666873D01*
X180883473Y-86666873D01*
X180883473Y-87796825D01*
G37*
G36*
X177833714Y-93023578D02*
G01*
X171913399Y-93023578D01*
X171913399Y-91893985D01*
X177833714Y-91893985D01*
X177833714Y-93023578D01*
G37*
G36*
X174873556Y-90410205D02*
G01*
X171913392Y-90410205D01*
X171913392Y-89280254D01*
X174873551Y-89280254D01*
X174873556Y-90410205D01*
G37*
G36*
X177833714Y-93023578D02*
G01*
X171913399Y-93023578D01*
X171913399Y-91893985D01*
X177833714Y-91893985D01*
X177833714Y-93023578D01*
G37*
G36*
X289727295Y-51181233D02*
G01*
X283806641Y-51181233D01*
X283806642Y-50051287D01*
X289727296Y-50051287D01*
X289727295Y-51181233D01*
G37*
G36*
X180883473Y-87796825D02*
G01*
X171913044Y-87796824D01*
X171913044Y-86666873D01*
X180883473Y-86666873D01*
X180883473Y-87796825D01*
G37*
G36*
X292777040Y-48567503D02*
G01*
X289816896Y-48567503D01*
X289816895Y-47437558D01*
X292777040Y-47437558D01*
X292777040Y-48567503D01*
G37*
G36*
X180883473Y-90410205D02*
G01*
X177923317Y-90410205D01*
X177923318Y-89280254D01*
X180883473Y-89280254D01*
X180883473Y-90410205D01*
G37*
D11*
%TO.C,U1*%
X243287209Y-46199069D02*
G75*
G03*
X243287209Y-46199069I-125000J0D01*
G01*
X244811209Y-30959069D02*
G75*
G03*
X244811209Y-30959069I-125000J0D01*
G01*
X243287209Y-38579069D02*
G75*
G03*
X243287209Y-38579069I-125000J0D01*
G01*
X244811209Y-33499069D02*
G75*
G03*
X244811209Y-33499069I-125000J0D01*
G01*
X243287209Y-33499069D02*
G75*
G03*
X243287209Y-33499069I-125000J0D01*
G01*
X243287209Y-30959069D02*
G75*
G03*
X243287209Y-30959069I-125000J0D01*
G01*
X244811209Y-36039069D02*
G75*
G03*
X244811209Y-36039069I-125000J0D01*
G01*
X244811209Y-43659069D02*
G75*
G03*
X244811209Y-43659069I-125000J0D01*
G01*
X243287209Y-43659069D02*
G75*
G03*
X243287209Y-43659069I-125000J0D01*
G01*
X243287209Y-36039069D02*
G75*
G03*
X243287209Y-36039069I-125000J0D01*
G01*
X244811209Y-41119069D02*
G75*
G03*
X244811209Y-41119069I-125000J0D01*
G01*
X244811209Y-38579069D02*
G75*
G03*
X244811209Y-38579069I-125000J0D01*
G01*
X244811209Y-46199069D02*
G75*
G03*
X244811209Y-46199069I-125000J0D01*
G01*
X243287209Y-41119069D02*
G75*
G03*
X243287209Y-41119069I-125000J0D01*
G01*
G36*
X250020209Y-46707069D02*
G01*
X249004209Y-46707069D01*
X249004209Y-45691069D01*
X250020209Y-45691069D01*
X250020209Y-46707069D01*
G37*
D12*
X250020209Y-46707069D02*
X249004209Y-46707069D01*
X249004209Y-45691069D01*
X250020209Y-45691069D01*
X250020209Y-46707069D01*
G36*
X250020209Y-34007069D02*
G01*
X249004209Y-34007069D01*
X249004209Y-32991069D01*
X250020209Y-32991069D01*
X250020209Y-34007069D01*
G37*
X250020209Y-34007069D02*
X249004209Y-34007069D01*
X249004209Y-32991069D01*
X250020209Y-32991069D01*
X250020209Y-34007069D01*
G36*
X238844209Y-41627069D02*
G01*
X237828209Y-41627069D01*
X237828209Y-40611069D01*
X238844209Y-40611069D01*
X238844209Y-41627069D01*
G37*
X238844209Y-41627069D02*
X237828209Y-41627069D01*
X237828209Y-40611069D01*
X238844209Y-40611069D01*
X238844209Y-41627069D01*
G36*
X250020209Y-39087069D02*
G01*
X249004209Y-39087069D01*
X249004209Y-38071069D01*
X250020209Y-38071069D01*
X250020209Y-39087069D01*
G37*
X250020209Y-39087069D02*
X249004209Y-39087069D01*
X249004209Y-38071069D01*
X250020209Y-38071069D01*
X250020209Y-39087069D01*
G36*
X238844209Y-44167069D02*
G01*
X237828209Y-44167069D01*
X237828209Y-43151069D01*
X238844209Y-43151069D01*
X238844209Y-44167069D01*
G37*
X238844209Y-44167069D02*
X237828209Y-44167069D01*
X237828209Y-43151069D01*
X238844209Y-43151069D01*
X238844209Y-44167069D01*
G36*
X238844209Y-31467069D02*
G01*
X237828209Y-31467069D01*
X237828209Y-30451069D01*
X238844209Y-30451069D01*
X238844209Y-31467069D01*
G37*
X238844209Y-31467069D02*
X237828209Y-31467069D01*
X237828209Y-30451069D01*
X238844209Y-30451069D01*
X238844209Y-31467069D01*
G36*
X250020209Y-44167069D02*
G01*
X249004209Y-44167069D01*
X249004209Y-43151069D01*
X250020209Y-43151069D01*
X250020209Y-44167069D01*
G37*
X250020209Y-44167069D02*
X249004209Y-44167069D01*
X249004209Y-43151069D01*
X250020209Y-43151069D01*
X250020209Y-44167069D01*
G36*
X250020209Y-36547069D02*
G01*
X249004209Y-36547069D01*
X249004209Y-35531069D01*
X250020209Y-35531069D01*
X250020209Y-36547069D01*
G37*
X250020209Y-36547069D02*
X249004209Y-36547069D01*
X249004209Y-35531069D01*
X250020209Y-35531069D01*
X250020209Y-36547069D01*
G36*
X238844209Y-34007069D02*
G01*
X237828209Y-34007069D01*
X237828209Y-32991069D01*
X238844209Y-32991069D01*
X238844209Y-34007069D01*
G37*
X238844209Y-34007069D02*
X237828209Y-34007069D01*
X237828209Y-32991069D01*
X238844209Y-32991069D01*
X238844209Y-34007069D01*
G36*
X238844209Y-39087069D02*
G01*
X237828209Y-39087069D01*
X237828209Y-38071069D01*
X238844209Y-38071069D01*
X238844209Y-39087069D01*
G37*
X238844209Y-39087069D02*
X237828209Y-39087069D01*
X237828209Y-38071069D01*
X238844209Y-38071069D01*
X238844209Y-39087069D01*
G36*
X250020209Y-41627069D02*
G01*
X249004209Y-41627069D01*
X249004209Y-40611069D01*
X250020209Y-40611069D01*
X250020209Y-41627069D01*
G37*
X250020209Y-41627069D02*
X249004209Y-41627069D01*
X249004209Y-40611069D01*
X250020209Y-40611069D01*
X250020209Y-41627069D01*
G36*
X238844209Y-46707069D02*
G01*
X237828209Y-46707069D01*
X237828209Y-45691069D01*
X238844209Y-45691069D01*
X238844209Y-46707069D01*
G37*
X238844209Y-46707069D02*
X237828209Y-46707069D01*
X237828209Y-45691069D01*
X238844209Y-45691069D01*
X238844209Y-46707069D01*
G36*
X250020209Y-31467069D02*
G01*
X249004209Y-31467069D01*
X249004209Y-30451069D01*
X250020209Y-30451069D01*
X250020209Y-31467069D01*
G37*
X250020209Y-31467069D02*
X249004209Y-31467069D01*
X249004209Y-30451069D01*
X250020209Y-30451069D01*
X250020209Y-31467069D01*
G36*
X238844209Y-36547069D02*
G01*
X237828209Y-36547069D01*
X237828209Y-35531069D01*
X238844209Y-35531069D01*
X238844209Y-36547069D01*
G37*
X238844209Y-36547069D02*
X237828209Y-36547069D01*
X237828209Y-35531069D01*
X238844209Y-35531069D01*
X238844209Y-36547069D01*
%TD*%
D13*
%TO.C,L1*%
X149984042Y-33150014D03*
D14*
X150422330Y-35635669D03*
%TD*%
D15*
%TO.C,S11*%
X186940985Y-59043894D03*
X182151754Y-61671301D03*
X192113701Y-60799743D03*
D16*
X187459562Y-64971252D03*
D17*
X181980491Y-65450609D03*
X192938633Y-64491895D03*
D18*
X187973781Y-70848801D03*
D19*
X190203523Y-58758458D03*
D18*
X192771727Y-68321013D03*
D19*
X178889217Y-61956736D03*
D18*
X182809780Y-69192571D03*
%TD*%
D20*
%TO.C,D2*%
X245500765Y-53384830D03*
X245500765Y-56784830D03*
%TD*%
D21*
%TO.C,REF\u002A\u002A*%
X135684000Y-92003000D03*
X135684000Y-93483000D03*
X135684000Y-94963000D03*
X135684000Y-92743000D03*
X135684000Y-95703000D03*
X135684000Y-94223000D03*
%TD*%
D20*
%TO.C,D12*%
X239396434Y-67240275D03*
X239396434Y-70640275D03*
%TD*%
D16*
%TO.C,S13*%
X224648729Y-57803880D03*
D17*
X230148729Y-57803880D03*
X219148729Y-57803880D03*
D15*
X224648729Y-51853880D03*
X229648729Y-54053880D03*
X219648729Y-54053880D03*
D18*
X224648729Y-63703880D03*
D22*
X227923729Y-51853880D03*
D18*
X219648729Y-61603880D03*
X229648729Y-61603880D03*
D22*
X216373729Y-54053880D03*
%TD*%
D20*
%TO.C,D16*%
X242444430Y-74167999D03*
X242444430Y-77567999D03*
%TD*%
D15*
%TO.C,S4*%
X229648731Y-37053873D03*
D17*
X219148731Y-40803873D03*
D16*
X224648731Y-40803873D03*
D15*
X219648731Y-37053873D03*
X224648731Y-34853873D03*
D17*
X230148731Y-40803873D03*
D18*
X224648731Y-46703873D03*
D22*
X227923731Y-34853873D03*
D18*
X219648731Y-44603873D03*
X229648731Y-44603873D03*
D22*
X216373731Y-37053873D03*
%TD*%
D21*
%TO.C,REF\u002A\u002A*%
X254762000Y-70137000D03*
X254762000Y-70877000D03*
X254762000Y-72357000D03*
X254762000Y-73097000D03*
X254762000Y-71617000D03*
X254762000Y-69397000D03*
%TD*%
D23*
%TO.C,*%
X32179313Y-39887738D03*
%TD*%
D24*
%TO.C,*%
X264116865Y-80270476D03*
%TD*%
D20*
%TO.C,D4*%
X239396428Y-53384830D03*
X239396428Y-56784830D03*
%TD*%
%TO.C,D5*%
X248540436Y-60312552D03*
X248540436Y-63712552D03*
%TD*%
%TO.C,D14*%
X248540430Y-74168000D03*
X248540430Y-77568000D03*
%TD*%
D15*
%TO.C,S12*%
X211648730Y-62553877D03*
D17*
X201148730Y-66303877D03*
D16*
X206648730Y-66303877D03*
D17*
X212148730Y-66303877D03*
D15*
X206648730Y-60353877D03*
X201648730Y-62553877D03*
D22*
X209923730Y-60353877D03*
D18*
X206648730Y-72203877D03*
X211648730Y-70103877D03*
X201648730Y-70103877D03*
D22*
X198373730Y-62553877D03*
%TD*%
D20*
%TO.C,D15*%
X245492430Y-74167999D03*
X245492430Y-77567999D03*
%TD*%
D24*
%TO.C,*%
X291199906Y-87884000D03*
%TD*%
%TO.C,REF\u002A\u002A*%
X264066063Y-29408473D03*
%TD*%
D20*
%TO.C,D8*%
X239396424Y-60312553D03*
X239396424Y-63712553D03*
%TD*%
D15*
%TO.C,S3*%
X201648726Y-28553870D03*
D17*
X201148726Y-32303870D03*
D15*
X211648726Y-28553870D03*
X206648726Y-26353870D03*
D16*
X206648726Y-32303870D03*
D17*
X212148726Y-32303870D03*
D22*
X209923726Y-26353870D03*
D18*
X206648726Y-38203870D03*
X211648726Y-36103870D03*
D22*
X198373726Y-28553870D03*
D18*
X201648726Y-36103870D03*
%TD*%
D15*
%TO.C,S2*%
X183977693Y-25173273D03*
X179188462Y-27800680D03*
D17*
X179017199Y-31579988D03*
D15*
X189150409Y-26929122D03*
D17*
X189975341Y-30621274D03*
D16*
X184496270Y-31100631D03*
D18*
X185010489Y-36978180D03*
D19*
X187240231Y-24887837D03*
X175925925Y-28086115D03*
D18*
X179846488Y-35321950D03*
X189808435Y-34450392D03*
%TD*%
D23*
%TO.C,*%
X33148424Y-45383831D03*
%TD*%
D21*
%TO.C,REF\u002A\u002A*%
X141859000Y-94963000D03*
X141859000Y-95703000D03*
X141859000Y-93483000D03*
X141859000Y-92003000D03*
X141859000Y-94223000D03*
X141859000Y-92743000D03*
%TD*%
D15*
%TO.C,S8*%
X201648724Y-45553883D03*
X206648724Y-43353883D03*
D17*
X201148724Y-49303883D03*
D16*
X206648724Y-49303883D03*
D15*
X211648724Y-45553883D03*
D17*
X212148724Y-49303883D03*
D18*
X206648724Y-55203883D03*
D22*
X209923724Y-43353883D03*
D18*
X211648724Y-53103883D03*
X201648724Y-53103883D03*
D22*
X198373724Y-45553883D03*
%TD*%
D17*
%TO.C,S5*%
X153640966Y-65059790D03*
D16*
X148328374Y-66483295D03*
D17*
X143015782Y-67906800D03*
D15*
X142528173Y-64155168D03*
X146788401Y-60736036D03*
X152187432Y-61566978D03*
D18*
X149855406Y-72182257D03*
D25*
X149951808Y-59888404D03*
D18*
X154141516Y-68859718D03*
X144482257Y-71447908D03*
D25*
X139364766Y-65002801D03*
%TD*%
D20*
%TO.C,D10*%
X245492428Y-67240275D03*
X245492428Y-70640275D03*
%TD*%
D26*
%TO.C,PSW1*%
X230314000Y-28614566D03*
X227314000Y-28564566D03*
D27*
X231064000Y-30414566D03*
X228064000Y-30414566D03*
X226564000Y-30414566D03*
D28*
X224714000Y-28514566D03*
X232664000Y-28514566D03*
%TD*%
D20*
%TO.C,D6*%
X245492431Y-60312553D03*
X245492431Y-63712553D03*
%TD*%
%TO.C,D1*%
X248540433Y-53384830D03*
X248540433Y-56784830D03*
%TD*%
D29*
%TO.C,REF\u002A\u002A*%
X220008156Y-29408474D03*
%TD*%
D15*
%TO.C,S6*%
X160741920Y-51658472D03*
D17*
X160900696Y-55438325D03*
D16*
X166317139Y-54483260D03*
D15*
X170589997Y-49921990D03*
X165283932Y-48623654D03*
D17*
X171733582Y-53528195D03*
D30*
X168509178Y-48054956D03*
D18*
X167341663Y-60293626D03*
D30*
X157516674Y-52227170D03*
D18*
X162052963Y-59093770D03*
X171901041Y-57357289D03*
%TD*%
D15*
%TO.C,S9*%
X146928096Y-80575913D03*
D17*
X147415705Y-84327545D03*
X158040889Y-81480535D03*
D15*
X151188324Y-77156781D03*
X156587355Y-77987723D03*
D16*
X152728297Y-82904040D03*
D25*
X154351731Y-76309149D03*
D18*
X154255329Y-88603002D03*
X148882180Y-87868653D03*
X158541439Y-85280463D03*
D25*
X143764689Y-81423546D03*
%TD*%
D31*
%TO.C,U1*%
X236304209Y-46199069D03*
D32*
X249766209Y-43659069D03*
D31*
X251544209Y-33499069D03*
D33*
X238082209Y-43659069D03*
X238082209Y-38579069D03*
D31*
X251544209Y-41119069D03*
D33*
X238082209Y-30959069D03*
D32*
X249766209Y-38579069D03*
D31*
X251544209Y-43659069D03*
D32*
X249766209Y-30959069D03*
X249766209Y-41119069D03*
X249766209Y-36039069D03*
D31*
X251544209Y-38579069D03*
D33*
X238082209Y-36039069D03*
X238082209Y-41119069D03*
D31*
X251544209Y-46199069D03*
D32*
X249766209Y-46199069D03*
D33*
X238082209Y-33499069D03*
D31*
X236304209Y-36039069D03*
X236304209Y-41119069D03*
D34*
X236304209Y-30959069D03*
D31*
X236304209Y-43659069D03*
X236304209Y-33499069D03*
D33*
X238082209Y-46199069D03*
D32*
X249766209Y-33499069D03*
D31*
X236304209Y-38579069D03*
X251544209Y-36039069D03*
X236304209Y-30959069D03*
X251544209Y-30959069D03*
D35*
X248750209Y-30959069D03*
X248750209Y-33499069D03*
X248750209Y-36039069D03*
X248750209Y-38579069D03*
X248750209Y-41119069D03*
X248750209Y-43659069D03*
X248750209Y-46199069D03*
D36*
X239098209Y-46199069D03*
X239098209Y-43659069D03*
X239098209Y-41119069D03*
X239098209Y-38579069D03*
X239098209Y-36039069D03*
X239098209Y-33499069D03*
X239098209Y-30959069D03*
D37*
X246362609Y-50009069D03*
X241282609Y-50009069D03*
X243822609Y-50009069D03*
%TD*%
D17*
%TO.C,S1*%
X157948682Y-38696591D03*
D15*
X157789906Y-34916738D03*
X162331918Y-31881920D03*
D16*
X163365125Y-37741526D03*
D17*
X168781568Y-36786461D03*
D15*
X167637983Y-33180256D03*
D30*
X165557164Y-31313222D03*
D18*
X164389649Y-43551892D03*
X168949027Y-40615555D03*
D30*
X154564660Y-35485436D03*
D18*
X159100949Y-42352036D03*
%TD*%
D20*
%TO.C,D11*%
X242444431Y-67240275D03*
X242444431Y-70640275D03*
%TD*%
%TO.C,D9*%
X248540426Y-67240275D03*
X248540426Y-70640275D03*
%TD*%
D17*
%TO.C,S7*%
X180498835Y-48515300D03*
D15*
X180670098Y-44735992D03*
X190632045Y-43864434D03*
X185459329Y-42108585D03*
D17*
X191456977Y-47556586D03*
D16*
X185977906Y-48035943D03*
D19*
X188721867Y-41823149D03*
D18*
X186492125Y-53913492D03*
X181328124Y-52257262D03*
D19*
X177407561Y-45021427D03*
D18*
X191290071Y-51385704D03*
%TD*%
D38*
%TO.C,BT1*%
X223775423Y-75609831D03*
X223775423Y-73609831D03*
%TD*%
D29*
%TO.C,*%
X220058958Y-80270473D03*
%TD*%
D39*
%TO.C,RSW1*%
X251870956Y-52141473D03*
X251870956Y-58641473D03*
%TD*%
D15*
%TO.C,S10*%
X168235944Y-65447177D03*
X163693932Y-68481995D03*
D17*
X163852708Y-72261848D03*
X174685594Y-70351718D03*
D15*
X173542009Y-66745513D03*
D16*
X169269151Y-71306783D03*
D18*
X170293675Y-77117149D03*
D30*
X171461190Y-64878479D03*
D18*
X174853053Y-74180812D03*
D30*
X160468686Y-69050693D03*
D18*
X165004975Y-75917293D03*
%TD*%
D15*
%TO.C,S14*%
X234616419Y-93115550D03*
X240067327Y-92758327D03*
X244013346Y-96535751D03*
D17*
X243200616Y-100230609D03*
D16*
X238032307Y-98349498D03*
D17*
X232863998Y-96468387D03*
D40*
X243144820Y-93878443D03*
D18*
X236014388Y-103893684D03*
X241431094Y-103630431D03*
X232034167Y-100210229D03*
D40*
X231538926Y-91995434D03*
%TD*%
D21*
%TO.C,REF\u002A\u002A*%
X259667000Y-70877000D03*
X259667000Y-72357000D03*
X259667000Y-69397000D03*
X259667000Y-73097000D03*
X259667000Y-71617000D03*
X259667000Y-70137000D03*
%TD*%
D15*
%TO.C,S15*%
X224223936Y-90279092D03*
X214375859Y-88542610D03*
D17*
X213232274Y-92148815D03*
D15*
X219681924Y-87244274D03*
D16*
X218648717Y-93103880D03*
D17*
X224065160Y-94058945D03*
D18*
X217624193Y-98914246D03*
D41*
X222907169Y-87812972D03*
D18*
X213064815Y-95977909D03*
D41*
X211150614Y-87973912D03*
D18*
X222912893Y-97714390D03*
%TD*%
D20*
%TO.C,D7*%
X242444428Y-60312553D03*
X242444428Y-63712553D03*
%TD*%
D23*
%TO.C,*%
X31215848Y-34387150D03*
%TD*%
D20*
%TO.C,D13*%
X239396430Y-74167999D03*
X239396430Y-77567999D03*
%TD*%
D13*
%TO.C,L2*%
X150952999Y-38645246D03*
D14*
X151391287Y-41130901D03*
%TD*%
D13*
%TO.C,L3*%
X151921957Y-44140474D03*
D14*
X152360245Y-46626129D03*
%TD*%
D20*
%TO.C,D3*%
X242461096Y-53384830D03*
X242461096Y-56784830D03*
%TD*%
D29*
%TO.C,*%
X247141998Y-87883997D03*
%TD*%
D15*
%TO.C,S16*%
X198648728Y-85353877D03*
D17*
X193148728Y-91303877D03*
D16*
X198648728Y-91303877D03*
D17*
X204148728Y-91303877D03*
D15*
X193648728Y-87553877D03*
X203648728Y-87553877D03*
D22*
X201923728Y-85353877D03*
D18*
X198648728Y-97203877D03*
D22*
X190373728Y-87553877D03*
D18*
X203648728Y-95103877D03*
X193648728Y-95103877D03*
%TD*%
D42*
%TO.C,R2*%
X149734424Y-51098831D03*
X149734424Y-53898831D03*
%TD*%
%TO.C,R1*%
X146305423Y-51098831D03*
X146305423Y-53898831D03*
%TD*%
%TO.C,R3*%
X153163424Y-51098831D03*
X153163424Y-53898831D03*
%TD*%
M02*
