M48
; DRILL file {KiCad (6.0.8)} date Sun Jan  1 21:59:41 2023
; FORMAT={-:-/ absolute / inch / decimal}
; #@! TF.CreationDate,2023-01-01T21:59:41+01:00
; #@! TF.GenerationSoftware,Kicad,Pcbnew,(6.0.8)
; #@! TF.FileFunction,Plated,1,2,PTH
FMAT,2
INCH
; #@! TA.AperFunction,Plated,PTH,ViaDrill
T1C0.0157
; #@! TA.AperFunction,Plated,PTH,ComponentDrill
T2C0.0157
; #@! TA.AperFunction,Plated,PTH,ComponentDrill
T3C0.0295
; #@! TA.AperFunction,Plated,PTH,ComponentDrill
T4C0.0390
; #@! TA.AperFunction,Plated,PTH,ComponentDrill
T5C0.0433
; #@! TA.AperFunction,Plated,PTH,ComponentDrill
T6C0.0500
; #@! TA.AperFunction,Plated,PTH,ComponentDrill
T7C0.0512
; #@! TA.AperFunction,Plated,PTH,ComponentDrill
T8C0.1024
%
G90
G05
T1
X8.9603Y-1.4766
X8.9619Y-1.255
X8.9642Y-1.7026
X9.03Y-1.255
X9.16Y-1.21
T2
X5.7601Y-2.0118
X5.7601Y-2.122
X5.8951Y-2.0118
X5.8951Y-2.122
X6.0301Y-2.0118
X6.0301Y-2.122
X9.4251Y-2.3745
X9.4251Y-2.5084
X9.4251Y-2.1018
X9.4251Y-2.2356
X9.4251Y-2.92
X9.4251Y-3.0539
X9.4251Y-2.6473
X9.4251Y-2.7811
X9.5451Y-2.3745
X9.5451Y-2.5084
X9.5451Y-2.92
X9.5451Y-3.0539
X9.5451Y-2.6473
X9.5451Y-2.7811
X9.5457Y-2.1018
X9.5457Y-2.2356
X9.5733Y-1.2189
X9.5733Y-1.3189
X9.5733Y-1.4189
X9.5733Y-1.5189
X9.5733Y-1.6189
X9.5733Y-1.7189
X9.5733Y-1.8189
X9.6333Y-1.2189
X9.6333Y-1.3189
X9.6333Y-1.4189
X9.6333Y-1.5189
X9.6333Y-1.6189
X9.6333Y-1.7189
X9.6333Y-1.8189
X9.6651Y-2.6473
X9.6651Y-2.7811
X9.6651Y-2.92
X9.6651Y-3.0539
X9.6651Y-2.3745
X9.6651Y-2.5084
X9.6654Y-2.1018
X9.6654Y-2.2356
X9.7851Y-2.6473
X9.7851Y-2.7811
X9.7851Y-2.92
X9.7851Y-3.0539
X9.7851Y-2.1018
X9.7851Y-2.2356
X9.7851Y-2.3745
X9.7851Y-2.5084
T3
X8.8101Y-2.898
X8.8101Y-2.9768
T4
X5.9049Y-1.3051
X5.9221Y-1.403
X5.943Y-1.5215
X5.9603Y-1.6193
X5.9812Y-1.7378
X5.9984Y-1.8357
T5
X9.3033Y-1.2189
X9.3033Y-1.2189
X9.3033Y-1.3189
X9.3033Y-1.4189
X9.3033Y-1.5189
X9.3033Y-1.6189
X9.3033Y-1.7189
X9.3033Y-1.8189
X9.4993Y-1.9689
X9.5993Y-1.9689
X9.6993Y-1.9689
X9.9033Y-1.2189
X9.9033Y-1.2189
X9.9033Y-1.3189
X9.9033Y-1.4189
X9.9033Y-1.5189
X9.9033Y-1.6189
X9.9033Y-1.7189
X9.9033Y-1.8189
T6
X5.6883Y-2.8129
X5.8615Y-3.4594
X5.8998Y-2.8418
X6.0686Y-2.711
X6.073Y-3.4883
X6.2418Y-3.3575
X6.2638Y-1.6674
X6.38Y-2.3265
X6.472Y-1.7146
X6.4963Y-2.9889
X6.5883Y-2.3738
X6.6515Y-1.599
X6.7045Y-3.0361
X6.7678Y-2.2582
X6.884Y-2.9205
X7.0806Y-1.3906
X7.1389Y-2.0574
X7.1972Y-2.7241
X7.2839Y-1.4558
X7.3422Y-2.1226
X7.4005Y-2.7893
X7.4728Y-1.3563
X7.5311Y-2.0231
X7.5894Y-2.6898
X7.624Y-3.7442
X7.8208Y-3.8269
X7.9389Y-2.0907
X7.9389Y-1.4214
X7.9389Y-2.76
X8.0177Y-3.7442
X8.1358Y-2.1734
X8.1358Y-1.5041
X8.1358Y-2.8427
X8.3326Y-2.0907
X8.3326Y-1.4214
X8.3326Y-2.76
X8.3884Y-3.7787
X8.5679Y-3.8943
X8.6476Y-2.4253
X8.6476Y-1.7561
X8.7761Y-3.847
X8.8444Y-2.508
X8.8444Y-1.8387
X9.0413Y-2.4253
X9.0413Y-1.7561
X9.1352Y-3.9453
X9.2919Y-4.0903
X9.5052Y-4.0799
T7
X9.9162Y-2.0528
X9.9162Y-2.3087
T8
X8.6637Y-3.1603
X9.73Y-3.46
T0
M30
