M48
; DRILL file {KiCad (6.0.8)} date Sun Jan  1 21:59:41 2023
; FORMAT={-:-/ absolute / inch / decimal}
; #@! TF.CreationDate,2023-01-01T21:59:41+01:00
; #@! TF.GenerationSoftware,Kicad,Pcbnew,(6.0.8)
; #@! TF.FileFunction,NonPlated,1,2,NPTH
FMAT,2
INCH
; #@! TA.AperFunction,NonPlated,NPTH,ComponentDrill
T1C0.0197
; #@! TA.AperFunction,NonPlated,NPTH,ComponentDrill
T2C0.0276
; #@! TA.AperFunction,NonPlated,NPTH,ComponentDrill
T3C0.0670
; #@! TA.AperFunction,NonPlated,NPTH,ComponentDrill
T4C0.1024
; #@! TA.AperFunction,NonPlated,NPTH,ComponentDrill
T5C0.1181
; #@! TA.AperFunction,NonPlated,NPTH,ComponentDrill
T6C0.1350
; #@! TA.AperFunction,NonPlated,NPTH,ComponentDrill
T7C0.1614
%
G90
G05
T1
X5.3419Y-3.6222
X5.3419Y-3.6513
X5.3419Y-3.6804
X5.3419Y-3.7096
X5.3419Y-3.7387
X5.3419Y-3.7678
X5.585Y-3.6222
X5.585Y-3.6513
X5.585Y-3.6804
X5.585Y-3.7096
X5.585Y-3.7387
X5.585Y-3.7678
X10.03Y-2.7322
X10.03Y-2.7613
X10.03Y-2.7904
X10.03Y-2.8196
X10.03Y-2.8487
X10.03Y-2.8778
X10.2231Y-2.7322
X10.2231Y-2.7613
X10.2231Y-2.7904
X10.2231Y-2.8196
X10.2231Y-2.8487
X10.2231Y-2.8778
T2
X8.9494Y-1.1246
X9.0675Y-1.1266
T3
X5.6305Y-2.6735
X5.8038Y-3.32
X6.0489Y-2.5614
X6.2185Y-1.5235
X6.2221Y-3.2079
X6.3347Y-2.1826
X6.4509Y-2.845
X6.6449Y-1.4483
X6.7612Y-2.1074
X6.8774Y-2.7698
X7.0479Y-1.2433
X7.1063Y-1.9101
X7.1646Y-2.5768
X7.4793Y-1.2056
X7.5377Y-1.8723
X7.596Y-2.5391
X7.6043Y-3.5946
X7.9192Y-1.9411
X7.9192Y-1.2718
X7.9192Y-2.6104
X8.0374Y-3.5946
X8.3523Y-1.9411
X8.3523Y-1.2718
X8.3523Y-2.6104
X8.395Y-3.6279
X8.6279Y-2.2757
X8.6279Y-1.6065
X8.8215Y-3.7031
X9.061Y-2.2757
X9.061Y-1.6065
X9.1679Y-3.798
X9.5748Y-3.9461
T4
X8.6617Y-1.1578
X10.3963Y-1.1578
X10.3983Y-3.1603
X11.4646Y-3.46
T5
X5.6113Y-2.5258
X5.7791Y-2.3912
X5.7846Y-3.1723
X5.9523Y-3.0377
X5.9916Y-2.4239
X6.1649Y-3.0704
X6.2122Y-1.3747
X6.3284Y-2.0338
X6.391Y-1.2552
X6.4446Y-2.6961
X6.5072Y-1.9143
X6.5999Y-1.3063
X6.6235Y-2.5767
X6.7161Y-1.9654
X6.8324Y-2.6278
X7.0547Y-1.0945
X7.113Y-1.7613
X7.1713Y-2.428
X7.2432Y-0.9911
X7.3015Y-1.6578
X7.3599Y-2.3246
X7.4469Y-1.0602
X7.5052Y-1.7269
X7.5635Y-2.3937
X7.624Y-3.447
X7.8208Y-3.3604
X7.9389Y-1.7935
X7.9389Y-1.1242
X7.9389Y-2.4628
X8.0177Y-3.447
X8.1358Y-1.7068
X8.1358Y-1.0376
X8.1358Y-2.3761
X8.3326Y-1.7935
X8.3326Y-1.1242
X8.3326Y-2.4628
X8.44Y-3.4859
X8.6476Y-2.1281
X8.6476Y-1.4588
X8.6489Y-3.4348
X8.8277Y-3.5543
X8.8444Y-2.0415
X8.8444Y-1.3722
X9.0413Y-2.1281
X9.0413Y-1.4588
X9.2369Y-3.666
X9.4515Y-3.6519
X9.6068Y-3.8006
T6
X5.8397Y-2.6175
X6.0129Y-3.2639
X6.4317Y-1.4859
X6.5479Y-2.145
X6.6641Y-2.8074
X7.2636Y-1.2244
X7.322Y-1.8912
X7.3803Y-2.5579
X7.8208Y-3.5946
X8.1358Y-1.9411
X8.1358Y-1.2718
X8.1358Y-2.6104
X8.6082Y-3.6655
X8.8444Y-2.2757
X8.8444Y-1.6065
X9.3714Y-3.872
T7
X1.229Y-1.3538
X1.2669Y-1.5704
X1.3051Y-1.7868
T0
M30
